<svg xmlns="http://www.w3.org/2000/svg" width="667" height="667" viewBox="0 0 667 667" version="1.1"><path d="M 307 90.055 C 192.361 102.587, 102.265 191.150, 88.423 304.914 C 86.165 323.467, 86.876 357.416, 89.875 374.255 C 94.535 400.427, 100.470 418.874, 111.510 441.500 C 162.711 546.431, 279.668 600.665, 393 572.028 C 450.243 557.564, 501.654 521.513, 534.935 472.500 C 542.978 460.656, 556.352 436.379, 555.550 435.081 C 555.240 434.580, 516.965 411.805, 470.494 384.470 C 424.022 357.134, 386.019 334.484, 386.043 334.135 C 386.067 333.786, 424.317 311.003, 471.043 283.506 C 517.769 256.010, 556 233.037, 556 232.456 C 556 231.875, 555.615 230.973, 555.144 230.450 C 554.674 229.928, 551.925 225, 549.037 219.500 C 527.873 179.199, 494.010 144.185, 454 121.231 C 428.265 106.466, 398.996 96.283, 368.500 91.482 C 356.500 89.592, 319.155 88.726, 307 90.055 M 315.500 127.642 C 279.700 131.722, 254.135 139.799, 227.620 155.404 C 142.134 205.715, 104.071 308.406, 136.217 402 C 158.692 467.438, 215.145 519.070, 282 535.333 C 299.423 539.572, 312.960 541.145, 332 541.145 C 383.363 541.145, 428.369 524.322, 468.505 490.118 C 483.422 477.405, 506.196 449.966, 503.302 448.192 C 502.681 447.812, 458.951 422.080, 406.126 391.011 C 353.300 359.942, 310.398 334.227, 310.789 333.868 C 311.180 333.508, 354.813 307.685, 407.750 276.484 C 460.688 245.284, 504 219.473, 504 219.127 C 504 217.466, 489.522 199.511, 481.147 190.785 C 447.833 156.077, 403.625 134.115, 355.897 128.561 C 343.943 127.170, 323.681 126.709, 315.500 127.642" stroke="none" fill="#ffffff" fill-rule="evenodd"/><path d="M 329.250 88.716 C 330.762 88.945, 333.238 88.945, 334.750 88.716 C 336.262 88.487, 335.025 88.300, 332 88.300 C 328.975 88.300, 327.738 88.487, 329.250 88.716 M 315.500 127.642 C 279.700 131.722, 254.135 139.799, 227.620 155.404 C 142.134 205.715, 104.071 308.406, 136.217 402 C 158.692 467.438, 215.145 519.070, 282 535.333 C 299.423 539.572, 312.960 541.145, 332 541.145 C 383.363 541.145, 428.369 524.322, 468.505 490.118 C 483.422 477.405, 506.196 449.966, 503.302 448.192 C 502.681 447.812, 458.951 422.080, 406.126 391.011 C 353.300 359.942, 310.398 334.227, 310.789 333.868 C 311.180 333.508, 354.813 307.685, 407.750 276.484 C 460.688 245.284, 504 219.473, 504 219.127 C 504 217.466, 489.522 199.511, 481.147 190.785 C 447.833 156.077, 403.625 134.115, 355.897 128.561 C 343.943 127.170, 323.681 126.709, 315.500 127.642 M 494.987 150.587 C 506.038 160.891, 516.989 172.391, 523.739 180.780 C 530.132 188.725, 542.696 207.424, 546.391 214.492 C 547.826 217.238, 549 218.939, 549 218.273 C 549 215.035, 533.496 191.542, 522.135 177.567 C 515.234 169.078, 499.382 153.057, 491.975 147.087 C 488.722 144.466, 489.945 145.887, 494.987 150.587 M 157.966 160.750 L 152.500 166.500 158.250 161.034 C 163.592 155.956, 164.458 155, 163.716 155 C 163.560 155, 160.972 157.588, 157.966 160.750 M 86.395 334.500 C 86.396 342.200, 86.553 345.218, 86.743 341.206 C 86.934 337.195, 86.932 330.895, 86.741 327.206 C 86.549 323.518, 86.393 326.800, 86.395 334.500 M 545.203 456.076 C 543.398 459.334, 542.131 462, 542.387 462 C 543.064 462, 549.283 450.950, 548.850 450.517 C 548.649 450.316, 547.008 452.818, 545.203 456.076 M 534.761 472.750 C 525.439 486.516, 513.954 499.950, 500.278 513.084 C 493.800 519.305, 491.200 522.107, 494.500 519.310 C 502.756 512.313, 517.318 497.102, 524.886 487.570 C 532.222 478.331, 542.738 463, 541.741 463 C 541.533 463, 538.392 467.387, 534.761 472.750 M 316.250 579.716 C 317.762 579.945, 320.238 579.945, 321.750 579.716 C 323.262 579.487, 322.025 579.300, 319 579.300 C 315.975 579.300, 314.738 579.487, 316.250 579.716 M 343.264 579.718 C 344.784 579.947, 347.034 579.941, 348.264 579.704 C 349.494 579.467, 348.250 579.279, 345.500 579.286 C 342.750 579.294, 341.744 579.488, 343.264 579.718" stroke="none" fill="#fbce7d" fill-rule="evenodd"/><path d="M 305.500 14.664 C 247.225 19.711, 191.673 40.153, 144.351 73.963 C 114.639 95.191, 85.119 125.513, 65.067 155.400 C 36.509 197.966, 19.478 243.256, 12.385 295.500 C 9.929 313.591, 9.903 356.221, 12.336 374.500 C 24.148 463.216, 69.253 540.716, 139.505 593.004 C 186.389 627.899, 238.731 648.274, 299 655.090 C 312.864 656.658, 349.553 656.655, 364 655.084 C 426.987 648.235, 484.239 624.701, 532.754 585.718 C 657.901 485.157, 689.582 308.047, 607.135 169.904 C 600.494 158.777, 592.464 147.246, 582.013 133.828 C 573.022 122.284, 544.622 93.971, 532.102 84.070 C 493.193 53.298, 449.123 32.170, 401.725 21.565 C 378.659 16.404, 364.476 14.877, 336.500 14.542 C 322.200 14.371, 308.250 14.426, 305.500 14.664 M 316 89.012 C 221.183 95.269, 138.605 155.620, 103.179 244.551 C 84.609 291.165, 81.153 344.949, 93.563 394.193 C 115.514 481.296, 185.276 551.040, 271.978 572.559 C 290.980 577.276, 303.798 579.031, 324.114 579.700 C 364.598 581.031, 401.614 573.465, 437.500 556.524 C 486.238 533.515, 526.150 495.063, 550.400 447.752 L 556.935 435.003 554.717 433.604 C 553.498 432.834, 515.150 410.270, 469.500 383.461 C 423.850 356.653, 386.370 334.614, 386.211 334.486 C 386.051 334.359, 424.381 311.585, 471.388 283.877 L 556.856 233.500 552.784 225.500 C 550.545 221.100, 547.818 215.700, 546.723 213.500 C 545.629 211.300, 541.453 204.550, 537.444 198.500 C 497.932 138.872, 433.998 99.214, 363.500 90.605 C 347.629 88.666, 330.132 88.080, 316 89.012" stroke="none" fill="#2c2c2c" fill-rule="evenodd"/></svg>